<svg xmlns="http://www.w3.org/2000/svg" xmlns:xlink="http://www.w3.org/1999/xlink" version="1.1" width="" height="" >
<defs>
<clipPath id="clip_0">
<path transform="matrix(1,0,0,-1,0,283.465)" d="M0 283.465H566.929V0H0Z"/>
</clipPath>
</defs>
<g id="layer_1" data-name="">
<path transform="matrix(1,0,0,-1,188.9766,170.91)" d="M0 0-.001 93.952H18.898L18.897 56.34 4.724 46.928 18.897 37.648 18.898 0ZM47.244 84.576 9.448 103.4-28.442 84.503H-47.244L-28.346 65.605V-28.236L47.244 8.913V37.648L32.96 46.928 47.244 56.34Z" fill="#000"/>
<path transform="matrix(1,0,0,-1,302.2676,170.91)" d="M0 0H-18.898V46.976H-18.803V93.952H.095V46.976H0ZM28.441 84.576-9.355 103.4-47.244 84.503V9.376L-9.449-9.449 28.441 9.449Z" fill="#000"/>
<path transform="matrix(1,0,0,-1,410.9133,123.9821)" d="M0 0 14.284 9.412V37.648L-23.512 56.472-61.402 37.575-61.306-38.015-32.96-51.993-32.961 47.024H-14.063V9.412L-28.236 0-14.063-9.28V-17.2-61.28L14.284-75.164V-9.28Z" fill="#000"/>
<g clip-path="url(#clip_0)">
<path transform="matrix(1,0,0,-1,270.1854,203.86829)" d="M0 0C-.001 2.608-2.114 4.721-4.722 4.722-7.33 4.721-9.443 2.608-9.444 0V-7.365C-9.443-9.974-7.33-12.087-4.722-12.087-2.114-12.087-.001-9.974 0-7.365H-2.079C-2.081-8.825-3.262-10.006-4.722-10.009-6.181-10.006-7.363-8.825-7.365-7.365V0C-7.363 1.459-6.181 2.641-4.722 2.643-3.262 2.641-2.081 1.46-2.079 0H0Z" fill="#000"/>
<path transform="matrix(1,0,0,-1,296.029,203.86829)" d="M0 0H1.039C1.039 2.608-1.074 4.721-3.683 4.722-6.291 4.721-8.404 2.608-8.405 0V-7.365C-8.404-9.974-6.291-12.087-3.683-12.087-1.074-12.087 1.039-9.974 1.039-7.365V0H0-1.039V-7.365C-1.042-8.825-2.223-10.006-3.683-10.009-5.142-10.006-6.323-8.825-6.326-7.365V0C-6.323 1.459-5.142 2.641-3.683 2.643-2.223 2.641-1.042 1.459-1.039 0Z" fill="#000"/>
<path transform="matrix(1,0,0,-1,377.9529,203.86829)" d="M0 0C-.001 2.608-2.114 4.721-4.722 4.722-7.33 4.721-9.443 2.608-9.444 0-9.444-1.76-8.373-3.342-6.739-3.995L-3.477-5.3C-2.633-5.638-2.079-6.456-2.079-7.366-2.081-8.825-3.263-10.006-4.722-10.009-6.182-10.006-7.363-8.825-7.365-7.365H-9.444C-9.443-9.974-7.33-12.087-4.722-12.087-2.114-12.087-.001-9.974 0-7.366 0-5.606-1.071-4.024-2.705-3.37L-5.967-2.065C-6.812-1.728-7.366-.91-7.365 0-7.363 1.46-6.182 2.641-4.722 2.643-3.263 2.641-2.081 1.459-2.079 0H0Z" fill="#000"/>
<path transform="matrix(1,0,0,-1,350.0307,203.86829)" d="M0 0H1.039C1.039 2.608-1.074 4.721-3.683 4.722H-8.405V-12.087H-3.683C-1.074-12.087 1.039-9.974 1.039-7.365V0H0-1.039V-7.365C-1.042-8.825-2.223-10.006-3.683-10.009H-6.326V2.643H-3.683C-2.223 2.641-1.042 1.459-1.039 0Z" fill="#000"/>
<path transform="matrix(1,0,0,-1,215.1442,205.3413)" d="M0 0C-.003-1.459-1.184-2.641-2.643-2.643H-5.287V4.116H-2.643C-1.184 4.114-.003 2.933 0 1.473ZM2.079 0V1.473C2.078 4.081-.035 6.194-2.643 6.195H-7.365V-10.434H-5.287V-4.722H-2.284L-.001-10.434H2.315L-.302-4.077C1.114-3.262 2.078-1.752 2.079 0" fill="#000"/>
<path transform="matrix(1,0,0,-1,243.3025,201.2249)" d="M0 0V2.079H-8.405V-14.731H0V-12.652H-6.326V-7.365H-4.419V-5.287H-6.326V0Z" fill="#000"/>
<path transform="matrix(1,0,0,-1,321.8725,205.3413)" d="M0 0C-.003-1.459-1.184-2.641-2.643-2.643H-5.287V4.116H-2.643C-1.184 4.114-.003 2.933 0 1.473ZM2.079 0V1.473C2.078 4.081-.035 6.194-2.643 6.195H-7.365V-10.434H-5.287V-4.722H-2.284L-.001-10.434H2.315L-.302-4.077C1.114-3.262 2.078-1.752 2.079 0" fill="#000"/>
</g>
</g>
</svg>
