<svg width="420" height="114" xmlns="http://www.w3.org/2000/svg">
 <!-- Created with Method Draw - http://github.com/duopixel/Method-Draw/ -->

 <g>
  <title>Layer 1</title>
  <metadata id="svg_107">image/svg+xml</metadata>
  <defs>
   <clipPath id="svg_60" clipPathUnits="userSpaceOnUse">
    <path id="svg_106" d="m6098.648479,-536.857099l1190.55,0l0,-841.89l-1190.55,0l0,841.89z"/>
   </clipPath>
  </defs>
  <g id="svg_109">
   <g transform="matrix(0.973342, 0, 0, -0.973342, -6298.33, -860.219)" id="svg_57">
    <g id="svg_58">
     <g clip-path="url(#svg_60)" id="svg_59">
      <g id="svg_104">
       <path fill="#ffffff" fill-rule="nonzero" id="svg_105" d="m6518.760265,-931.905302c7.795,0 9.875,-8.041 9.875,-12.795c0,-4.426 -2.063,-12.796 -9.875,-12.796c-7.889,0 -9.974,8.37 -9.974,12.796c0,4.754 2.101,12.795 9.974,12.795m-10.07,-34.319c3.366,-4.252 7.846,-6.469 13.175,-6.469c16.424,0 23.904,14.558 23.904,28.088c0,13.436 -7.48,27.898 -23.904,27.898c-5.395,0 -9.873,-1.998 -13.175,-5.834l0,11.223l0,18.343l0,3.959l-16.843,2.731l0,-6.69l-0.001,0l0,-78.701l16.844,0l0,5.452z"/>
      </g>
      <g id="svg_102">
       <path fill="#ffffff" fill-rule="nonzero" id="svg_103" d="m6662.993205,-957.77249c-9.253,0 -9.973,10.362 -9.973,13.534c0,4.426 2.085,12.797 9.973,12.797c7.95,0 10.07,-8.042 10.07,-12.797c0,-4.68 -2.105,-13.534 -10.07,-13.534m9.778,35.978c-2.99,3.677 -7.442,5.646 -12.981,5.646c-16.557,0 -24.099,-14.558 -24.099,-28.09c0,-14.324 8.278,-28.828 24.099,-28.828c5.063,0 9.483,2.272 12.981,6.619l0,-5.322l17.039,0l0,54.046l-17.039,0l0,-4.071z"/>
      </g>
      <g id="svg_100">
       <path fill="#ffffff" fill-rule="nonzero" id="svg_101" d="m6713.999065,-949.848204l1.475,1.487l12.763,-23.316l20.36,0l-21.582,34.097l19.818,20.04l-21.096,0l-11.642,-12.921l0,31.218l0,7.29l0,3.147l-17.037,2.765l0,-5.912l0,-79.629l17.043,0l-0.102,21.734z"/>
      </g>
      <g id="svg_98">
       <path fill="#ffffff" fill-rule="nonzero" id="svg_99" d="m6768.90916,-971.676787l-0.104,54.045l-17.037,0l0.104,-54.045l17.037,0z"/>
      </g>
      <g id="svg_96">
       <path fill="#ffffff" fill-rule="nonzero" id="svg_97" d="m6791.090861,-970.189512c0,0 -0.098,23.988 -0.098,24.191c0,8.637 3.86,14 10.071,14c2.056,0 8.322,0 8.322,-13.166l0,-26.512l17.232,0l0,1.481c0,20.574 -0.07,25.871 -0.097,27.247c0.064,8.867 -2.241,15.908 -6.664,20.364c-3.813,3.839 -9.121,5.785 -15.786,5.785c-5.035,0 -9.289,-2.09 -12.689,-6.227l0,5.395l-17.037,0l0,-54.045l16.75,0l-0.004,1.487z"/>
      </g>
      <g id="svg_94">
       <path fill="#ffffff" fill-rule="nonzero" id="svg_95" d="m6609.427776,-931.905302c3.106,0 4.832,-1.942 5.601,-3.146c0.15,-0.304 0.969,-2.041 1.11,-3.904l-15.744,0c0.998,2.957 3.398,7.05 9.033,7.05m0,-40.696c11.194,0 17.277,4.922 20.924,8.882l-9.284,11.991c-0.07,-0.067 -0.147,-0.144 -0.236,-0.233c-1.344,-1.346 -5.434,-5.441 -11.404,-5.441c-5.615,0 -8.102,3.563 -9.182,7.142l31.919,0l0.181,1.275c0.02,0.142 0.5,3.57 0.5,6.972c0,12.531 -8.044,25.214 -23.418,25.214c-15.594,0 -26.913,-11.731 -26.913,-27.901c0,-16.167 11.319,-27.901 26.913,-27.901"/>
      </g>
      <g id="svg_92">
       <path fill="#ffffff" fill-rule="nonzero" id="svg_93" d="m6496.718791,-987.899412c-1.962,0.455 -2.638,0.748 -2.638,1.658c0,1.113 0.862,1.88 2.451,1.88c1.59,0 2.402,-0.694 2.741,-1.751l1.928,0c-0.339,2.024 -1.709,3.684 -4.685,3.684c-2.267,0 -4.347,-1.332 -4.347,-3.867c0,-2.389 1.793,-3.082 4.093,-3.629c2.198,-0.53 3.163,-0.731 3.163,-1.916c0,-1.182 -0.914,-1.86 -2.503,-1.86c-1.878,0 -2.791,0.766 -3.146,2.244l-1.928,0c0.321,-2.207 1.776,-4.177 5.09,-4.177c2.114,0 4.415,1.093 4.415,3.884c0,2.464 -1.64,3.139 -4.634,3.85"/>
      </g>
      <g id="svg_90">
       <path fill="#ffffff" fill-rule="nonzero" id="svg_91" d="m6505.947276,-984.616209l3.603,0l0,-10.797l1.911,0l0,10.797l3.619,0l0,1.969l-9.133,0l0,-1.969z"/>
      </g>
      <g id="svg_88">
       <path fill="#ffffff" fill-rule="nonzero" id="svg_89" d="m6525.516673,-993.663084c-2.401,0 -4.21,1.969 -4.21,4.632c0,2.663 1.809,4.633 4.21,4.633c2.385,0 4.194,-1.97 4.194,-4.633c0,-2.663 -1.809,-4.632 -4.194,-4.632m0,11.234c-3.468,0 -6.139,-2.845 -6.139,-6.602c0,-3.757 2.671,-6.603 6.139,-6.603c3.467,0 6.123,2.846 6.14,6.603c-0.017,3.757 -2.673,6.602 -6.14,6.602"/>
      </g>
      <g id="svg_86">
       <path fill="#ffffff" fill-rule="nonzero" id="svg_87" d="m6548.567393,-988.756895l-0.896,-4.521l-0.914,4.521l-1.489,6.109l-2.435,0l-1.489,-6.109l-0.896,-4.504l-0.896,4.504l-1.505,6.109l-1.962,0l3.146,-12.765l2.401,0l1.134,4.611l1.133,5.711l0.304,0l1.15,-5.711l1.133,-4.611l2.385,0l3.147,12.765l-1.963,0l-1.488,-6.109z"/>
      </g>
      <g id="svg_84">
       <path fill="#ffffff" fill-rule="nonzero" id="svg_85" d="m6559.562572,-990.034208l1.877,5.343l1.878,-5.343l-3.755,0zm0.66,7.387l-4.584,-12.766l2.029,0l1.202,3.43l5.141,0l1.201,-3.43l2.03,0l-4.584,12.766l-2.435,0z"/>
      </g>
      <g id="svg_82">
       <path fill="#ffffff" fill-rule="nonzero" id="svg_83" d="m6574.355479,-988.830107l0,4.214l2.774,0c1.557,0 2.3,-0.86 2.3,-2.1c0,-1.24 -0.727,-2.114 -2.3,-2.114l-2.774,0zm7.002,2.134c0,2.406 -1.454,4.049 -4.024,4.049l-4.889,0l0,-12.766l1.911,0l0,4.758l1.827,0l3.382,-4.758l2.352,0l-3.535,4.867c1.877,0.385 2.976,1.752 2.976,3.85"/>
      </g>
      <g id="svg_80">
       <path fill="#ffffff" fill-rule="nonzero" id="svg_81" d="m6595.440471,-984.616209l0,1.969l-8.389,0l0,-1.969l6.005,0l-6.292,-8.828l0,-1.969l8.694,0l0,1.969l-6.309,0l6.291,8.828z"/>
      </g>
      <g id="svg_78">
       <path fill="#ffffff" fill-rule="nonzero" id="svg_79" d="m6605.532786,-988.739287l-3.079,6.092l-2.165,0l4.279,-8.406l0,-4.36l1.912,0l0.017,4.394l4.261,8.372l-2.147,0l-3.078,-6.092z"/>
      </g>
      <g id="svg_76">
       <path fill="#ffffff" fill-rule="nonzero" id="svg_77" d="m6619.723674,-987.899412c-1.962,0.455 -2.639,0.748 -2.639,1.658c0,1.113 0.863,1.88 2.453,1.88c1.59,0 2.402,-0.694 2.74,-1.751l1.927,0c-0.337,2.024 -1.707,3.684 -4.684,3.684c-2.267,0 -4.347,-1.332 -4.347,-3.867c0,-2.389 1.794,-3.082 4.093,-3.629c2.199,-0.53 3.163,-0.731 3.163,-1.916c0,-1.182 -0.913,-1.86 -2.503,-1.86c-1.877,0 -2.791,0.766 -3.146,2.244l-1.928,0c0.321,-2.207 1.775,-4.177 5.091,-4.177c2.114,0 4.414,1.093 4.414,3.884c0,2.464 -1.641,3.139 -4.634,3.85"/>
      </g>
      <g id="svg_74">
       <path fill="#ffffff" fill-rule="nonzero" id="svg_75" d="m6637.857463,-984.616209l0,1.969l-8.39,0l0,-1.969l6.005,0l-6.291,-8.828l0,-1.969l8.693,0l0,1.969l-6.309,0l6.292,8.828z"/>
      </g>
      <g id="svg_72">
       <path fill="#ffffff" fill-rule="nonzero" id="svg_73" d="m6643.446391,-995.413084l7.729,0l0,1.969l-5.818,0l0,3.556l5.396,0l0,1.969l-5.396,0l0,3.303l5.818,0l0,1.969l-7.729,0l0,-12.766z"/>
      </g>
      <g id="svg_70">
       <path fill="#ffffff" fill-rule="nonzero" id="svg_71" d="m6664.87205,-987.991209l0.168,-4.504l-5.92,9.848l-2.248,0l0,-12.766l1.911,0l0,5.343l-0.187,4.523l5.921,-9.866l2.265,0l0,12.766l-1.91,0l0,-5.344z"/>
      </g>
      <path fill="#ffffff" fill-rule="nonzero" id="svg_69" d="m6673.072479,-995.413099l1.911,0l0,12.766l-1.911,0l0,-12.766z"/>
      <g id="svg_67">
       <path fill="#ffffff" fill-rule="nonzero" id="svg_68" d="m6681.289104,-995.413084l7.729,0l0,1.969l-5.818,0l0,3.556l5.396,0l0,1.969l-5.396,0l0,3.303l5.818,0l0,1.969l-7.729,0l0,-12.766z"/>
      </g>
      <g id="svg_65">
       <path fill="#ffffff" fill-rule="nonzero" id="svg_66" d="m6855.758891,-954.065886c-6.135,0 -8.93,5.889 -8.93,11.358c0,3.012 0.848,5.912 2.325,7.961c1.115,1.551 3.169,3.4 6.605,3.4c6.748,0 9.195,-6.766 9.195,-11.314c0,-4.585 -2.447,-11.405 -9.195,-11.405m25.555,38.14l-17.035,2.761l0,-7.143c-2.45,2.592 -5.922,4.159 -11.723,4.159c-15.844,0 -22.936,-13.269 -22.936,-26.418c0,-12.274 6.008,-26.607 22.936,-26.607c4.75,0 8.736,1.594 11.896,4.742c-0.259,-5.806 0.469,-15.448 -13.224,-17.997l-89.463,0l-64.707,0l0,-16.211l64.707,0l89.502,0l0,0.08c0.66,-0.045 1.32,-0.08 1.969,-0.08l0.599,0l0.022,0c22.183,0 27.357,16.85 27.457,35.306l0,42.509l0,4.899z"/>
      </g>
      <g id="svg_63">
       <path fill="#ffffff" fill-rule="nonzero" id="svg_64" d="m6768.858501,-897.687986l-17.037,2.764l0,-18.347l17.037,0l0,15.583z"/>
      </g>
      <g id="svg_61">
       <path fill="#ffffff" fill-rule="nonzero" id="svg_62" d="m6579.245677,-932.409208l10.215,13.669c-3.906,1.826 -8.604,2.126 -11.131,2.126c-6.13,0 -10.517,-2.617 -13.273,-7.963l0,7.037l-15.581,0l0,-54.137l16.842,0l0,25.122c0,9.696 5.489,14.927 10.653,14.927c1.036,0 1.793,-0.406 2.275,-0.781"/>
      </g>
     </g>
    </g>
   </g>
  </g>
 </g>
</svg>