<?xml version="1.0" encoding="UTF-8" standalone="no"?>
<!-- Created with Inkscape (http://www.inkscape.org/) -->

<svg
   version="1.1"
   id="svg2"
   width="264.57333"
   height="264.57333"
   viewBox="0 0 264.57333 264.57333"
   sodipodi:docname="logo ks breaking-01.eps"
   xmlns:inkscape="http://www.inkscape.org/namespaces/inkscape"
   xmlns:sodipodi="http://sodipodi.sourceforge.net/DTD/sodipodi-0.dtd"
   xmlns="http://www.w3.org/2000/svg"
   xmlns:svg="http://www.w3.org/2000/svg">
  <defs
     id="defs6" />
  <sodipodi:namedview
     id="namedview4"
     pagecolor="#ffffff"
     bordercolor="#000000"
     borderopacity="0.25"
     inkscape:showpageshadow="2"
     inkscape:pageopacity="0.0"
     inkscape:pagecheckerboard="0"
     inkscape:deskcolor="#d1d1d1" />
  <g
     id="g8"
     inkscape:groupmode="layer"
     inkscape:label="ink_ext_XXXXXX"
     transform="matrix(1.3333333,0,0,-1.3333333,0,264.57333)">
    <g
       id="g10"
       transform="scale(0.1)">
      <path
         d="m 306.445,1233.98 -26.531,10.34 -12.613,25.37 59.437,16.31 8.254,21.17 -76.582,-19.77 -28.816,57.8 -8.082,-20.73 34.551,-70.84 -53.969,21.04 -6.864,-17.58 104.356,-40.7 6.859,17.59"
         style="fill:#231f20;fill-opacity:1;fill-rule:nonzero;stroke:none"
         id="path12" />
      <path
         d="m 397.863,1411.88 -14.476,9.12 -25.844,-41 -80.266,50.59 -10.062,-15.98 94.738,-59.71 35.91,56.98"
         style="fill:#231f20;fill-opacity:1;fill-rule:nonzero;stroke:none"
         id="path14" />
      <path
         d="m 463.77,1489.53 c 20.734,22.02 20.316,47.68 -0.997,67.76 l -47.73,44.98 -12.945,-13.73 47.734,-44.99 c 13.852,-13.04 14.215,-29 1.707,-42.26 -12.617,-13.4 -28.891,-14.1 -42.633,-1.15 l -47.73,44.98 -12.946,-13.75 47.735,-44.98 c 21.305,-20.08 47.07,-18.85 67.805,3.14"
         style="fill:#231f20;fill-opacity:1;fill-rule:nonzero;stroke:none"
         id="path16" />
      <path
         d="m 556.906,1634.05 c 12.114,8.37 22.719,8.49 28.36,0.33 6,-8.7 2.031,-18.44 -10.082,-26.8 l -23.704,-16.37 -18.281,26.47 z m -49.984,21.69 23.699,16.37 c 9.879,6.82 18.711,6.7 24.078,-1.07 5.367,-7.78 2.621,-16.47 -7.25,-23.31 l -23.707,-16.36 z m 79.519,-60.8 c 20.805,14.36 27.032,32.68 16.122,48.48 -8.547,12.36 -22.012,16.09 -35.848,9.65 8.371,9.29 9.195,21.32 2.008,31.73 -9.91,14.36 -27.762,14.87 -46.86,1.68 l -40.031,-27.65 63.656,-92.17 40.953,28.28"
         style="fill:#231f20;fill-opacity:1;fill-rule:nonzero;stroke:none"
         id="path18" />
      <path
         d="m 792.48,1723.01 c 2.508,-8.28 -3.55,-15.3 -16.105,-19.1 -11.477,-3.48 -26.922,-2.13 -41.004,4.63 l -3.074,-17.99 c 14.082,-6.76 32.086,-8.81 48.922,-3.71 23.566,7.14 36.836,24.02 31.035,43.16 -11.539,38.61 -65.586,8.54 -72.684,31.93 -2.179,7.21 3.504,13.27 14.067,16.47 8.109,2.46 20.617,3.08 34.386,-0.43 l 2.672,18.18 c -11.937,3.58 -26.91,3.87 -40.836,-0.35 -23.261,-7.05 -35.546,-23.3 -29.98,-41.66 11.555,-38.1 65.367,-7.26 72.601,-31.13"
         style="fill:#231f20;fill-opacity:1;fill-rule:nonzero;stroke:none"
         id="path20" />
      <path
         d="m 913.574,1809.93 c 17.192,1.73 27.606,-4.3 29.078,-18.93 1.524,-15.12 -7.449,-23.42 -24.636,-25.16 l -24.825,-2.5 -4.437,44.09 z m -15.304,-97.04 -3.383,33.57 25.625,2.59 c 28.008,2.83 42.609,19.08 40.078,44.23 -2.438,24.18 -19.902,36.41 -47.918,33.6 l -44.399,-4.48 11.215,-111.4 18.782,1.89"
         style="fill:#231f20;fill-opacity:1;fill-rule:nonzero;stroke:none"
         id="path22" />
      <path
         d="m 1039.83,1774.2 c 2.46,22.09 22.5,37.25 44.43,34.81 21.79,-2.42 37.69,-21.58 35.22,-43.67 -2.46,-22.12 -22.21,-37.63 -43.99,-35.18 -21.79,2.42 -38.12,21.93 -35.66,44.04 z m 33.62,-60.88 c 33.23,-3.71 61.73,18.07 65.27,49.86 3.54,31.8 -19.5,59.01 -52.74,62.7 -33.22,3.69 -61.68,-17.6 -65.23,-49.55 -3.54,-31.8 19.47,-59.32 52.7,-63.01"
         style="fill:#231f20;fill-opacity:1;fill-rule:nonzero;stroke:none"
         id="path24" />
      <path
         d="m 1236.29,1777.13 25.12,-8.63 c 16.35,-5.62 23.45,-15.51 18.66,-29.44 -4.95,-14.37 -16.72,-18.1 -33.07,-12.5 l -25.13,8.65 z m -19.94,-57.97 25.13,-8.63 c 1.67,-0.57 3.33,-1.15 4.9,-1.52 l 8.34,-38.75 20.29,-6.98 -11.59,43.6 c 15.95,0.6 27.93,9.86 33.76,26.81 7.9,23.01 -3.16,41.54 -30.25,50.86 l -42.99,14.77 -36.42,-105.96 17.86,-6.13 10.97,31.93"
         style="fill:#231f20;fill-opacity:1;fill-rule:nonzero;stroke:none"
         id="path26" />
      <path
         d="m 1364.7,1616 47.77,82.22 30.72,-17.84 8.53,14.66 -77.65,45.1 -8.52,-14.67 30.59,-17.77 -47.77,-82.21 16.33,-9.49"
         style="fill:#231f20;fill-opacity:1;fill-rule:nonzero;stroke:none"
         id="path28" />
      <path
         d="m 1478.04,1606.8 c 14.68,16.72 39.79,17.67 56.38,3.1 16.48,-14.47 18.54,-39.27 3.86,-55.99 -14.68,-16.72 -39.76,-18.13 -56.23,-3.65 -16.48,14.47 -18.69,39.84 -4.01,56.54 z m -7.31,-69.18 c 25.14,-22.07 60.98,-20.55 82.1,3.51 21.12,24.05 17.79,59.55 -7.34,81.63 -25.13,22.04 -60.65,20.89 -81.88,-3.29 -21.12,-24.04 -18.01,-59.78 7.12,-81.85"
         style="fill:#231f20;fill-opacity:1;fill-rule:nonzero;stroke:none"
         id="path30" />
      <path
         d="m 1577.04,1423.83 87.26,27.22 -57.04,-71.3 10.94,-15.98 113.57,32.46 -11.04,16.09 -90.39,-29.18 59.72,73.93 -10.63,15.22 -90.26,-29.08 59.72,73.92 -11.5,16.76 -71.39,-93.97 11.04,-16.09"
         style="fill:#231f20;fill-opacity:1;fill-rule:nonzero;stroke:none"
         id="path32" />
      <path
         d="m 1667.29,1261.02 6.71,-17.48 34.81,13.35 84.51,-11.58 -6.89,17.91 -62.19,9.73 39.47,49.43 -6.83,17.78 -55.38,-66 -34.21,-13.14"
         style="fill:#231f20;fill-opacity:1;fill-rule:nonzero;stroke:none"
         id="path34" />
      <path
         d="m 214.023,926.262 -20.039,-2.231 4.836,-43.402 20.032,2.223 -4.829,43.41"
         style="fill:#231f20;fill-opacity:1;fill-rule:nonzero;stroke:none"
         id="path36" />
      <path
         d="m 227.441,833.531 -19.628,-4.633 10.042,-42.527 19.625,4.629 -10.039,42.531"
         style="fill:#231f20;fill-opacity:1;fill-rule:nonzero;stroke:none"
         id="path38" />
      <path
         d="m 233,735.859 15.078,-40.988 18.914,6.969 -15.074,40.98 L 233,735.859"
         style="fill:#231f20;fill-opacity:1;fill-rule:nonzero;stroke:none"
         id="path40" />
      <path
         d="m 269.184,646.801 19.91,-38.871 17.937,9.191 -19.91,38.867 -17.937,-9.187"
         style="fill:#231f20;fill-opacity:1;fill-rule:nonzero;stroke:none"
         id="path42" />
      <path
         d="m 315.781,562.84 24.453,-36.199 16.704,11.289 -24.458,36.199 -16.699,-11.289"
         style="fill:#231f20;fill-opacity:1;fill-rule:nonzero;stroke:none"
         id="path44" />
      <path
         d="m 387.246,498.309 -15.242,-13.18 28.574,-33.039 15.254,13.191 -28.586,33.028"
         style="fill:#231f20;fill-opacity:1;fill-rule:nonzero;stroke:none"
         id="path46" />
      <path
         d="m 512.121,400.09 c -3.828,-4.52 -9.492,-4.758 -14.492,-0.52 l -15.383,13.039 12.317,14.532 15.378,-13.039 c 5,-4.243 5.903,-9.622 2.18,-14.012 z m -25.098,-34.32 c -4.25,-5 -10.957,-4.758 -17.429,0.73 l -15.383,13.031 13.352,15.75 15.378,-13.043 c 6.465,-5.476 8.008,-11.828 4.082,-16.468 z m 40.403,66.23 -41.992,35.59 -72.524,-85.57 43.82,-37.141 c 20.508,-17.379 41.551,-19.27 53.965,-4.617 9.207,10.847 9.739,25.09 1.106,36.187 11.082,-4.988 22.801,-2.551 30.144,6.121 11.172,13.18 5.496,32.469 -14.519,49.43"
         style="fill:#231f20;fill-opacity:1;fill-rule:nonzero;stroke:none"
         id="path48" />
      <path
         d="m 643.215,306.949 c -4.805,-8.871 -12.461,-10.898 -21.192,-6.179 l -16.738,9.089 14.649,27.012 16.738,-9.09 c 8.73,-4.722 11.199,-12.25 6.543,-20.832 z m 5.664,43.34 -45.996,24.961 -53.488,-98.629 29.257,-15.871 14.426,26.602 15.481,-8.403 -1.34,-33.679 33.203,-18.008 -2.512,43.047 c 13.977,0.25 25.688,7.742 33.613,22.382 12.129,22.36 3.813,43.258 -22.644,57.598"
         style="fill:#231f20;fill-opacity:1;fill-rule:nonzero;stroke:none"
         id="path50" />
      <path
         d="m 705.285,201.199 89.309,-27.051 7.422,24.512 -57.446,17.41 5.149,17 50.703,-15.351 7.422,24.511 -50.703,15.348 5.097,16.863 55.918,-16.941 7.422,24.512 -87.781,26.59 -32.512,-107.403"
         style="fill:#231f20;fill-opacity:1;fill-rule:nonzero;stroke:none"
         id="path52" />
      <path
         d="m 909.902,198.539 16.821,35.352 10.281,-37.661 z m 3.536,69.883 -57.196,-107.723 34.129,-2.898 8.215,17.289 45.129,-3.852 5.015,-18.406 35.403,-3.012 -36.563,115.7 -34.132,2.902"
         style="fill:#231f20;fill-opacity:1;fill-rule:nonzero;stroke:none"
         id="path54" />
      <path
         d="m 1144.32,277.969 -38.09,-4.938 -31.73,-47.691 -5.56,42.851 -33.01,-4.281 14.44,-111.25 33.01,4.289 -3.47,26.66 10.74,15.59 31.13,-37.258 39.51,5.118 -51.41,60.453 34.44,50.457"
         style="fill:#231f20;fill-opacity:1;fill-rule:nonzero;stroke:none"
         id="path56" />
      <path
         d="m 1190.76,291.621 33.06,-107.172 31.8,9.801 -33.05,107.18 -31.81,-9.809"
         style="fill:#231f20;fill-opacity:1;fill-rule:nonzero;stroke:none"
         id="path58" />
      <path
         d="m 1342.15,353.531 28.48,-55.871 -70.8,34.289 -25.37,-12.918 50.91,-99.91 27.22,13.867 -28.32,55.59 70.65,-34.019 25.23,12.863 -50.92,99.906 -27.08,-13.797"
         style="fill:#231f20;fill-opacity:1;fill-rule:nonzero;stroke:none"
         id="path60" />
      <path
         d="m 1504.56,401.148 17.3,-21.179 c -2.99,-5.949 -6.81,-11.129 -10.4,-14.071 -12.64,-10.32 -30.07,-8.449 -40.89,4.813 -10.63,13.008 -9.2,30.488 3.31,40.711 7.56,6.168 19.27,9.539 29.87,8.687 l 0.15,29.661 c -15.74,0.562 -34.14,-5.989 -47.39,-16.821 -28.01,-22.859 -33.07,-58.39 -12.34,-83.789 20.84,-25.519 56.14,-28.289 83.03,-6.34 12.39,10.121 23.92,27.379 28.07,41.508 l -28.53,34.942 -22.18,-18.122"
         style="fill:#231f20;fill-opacity:1;fill-rule:nonzero;stroke:none"
         id="path62" />
      <path
         d="m 1567.21,464.012 15.22,-13.242 28.67,33 -15.23,13.218 -28.66,-32.976"
         style="fill:#231f20;fill-opacity:1;fill-rule:nonzero;stroke:none"
         id="path64" />
      <path
         d="m 1626.46,536.699 16.69,-11.308 24.49,36.16 -16.69,11.301 -24.49,-36.153"
         style="fill:#231f20;fill-opacity:1;fill-rule:nonzero;stroke:none"
         id="path66" />
      <path
         d="m 1676.64,616.109 17.92,-9.23 20,38.82 -17.92,9.223 -20,-38.813"
         style="fill:#231f20;fill-opacity:1;fill-rule:nonzero;stroke:none"
         id="path68" />
      <path
         d="m 1716.74,700.602 18.91,-7 15.15,40.937 -18.89,7 -15.17,-40.937"
         style="fill:#231f20;fill-opacity:1;fill-rule:nonzero;stroke:none"
         id="path70" />
      <path
         d="m 1746.44,789.559 19.61,-4.668 10.11,42.488 -19.61,4.672 -10.11,-42.492"
         style="fill:#231f20;fill-opacity:1;fill-rule:nonzero;stroke:none"
         id="path72" />
      <path
         d="m 1765.16,881.309 20.03,-2.278 4.91,43.41 -20.03,2.27 -4.91,-43.402"
         style="fill:#231f20;fill-opacity:1;fill-rule:nonzero;stroke:none"
         id="path74" />
      <path
         d="m 736.824,640.781 -25.742,20.25 -9.348,-11.89 25.743,-20.243 9.347,11.883"
         style="fill:#231f20;fill-opacity:1;fill-rule:nonzero;stroke:none"
         id="path76" />
      <path
         d="m 863.492,550.09 -30.472,11.289 18.925,8.973 c 11.95,5.687 21.606,12.078 24.899,20.957 4.668,12.601 -4.02,25.41 -19.875,31.281 -11.918,4.41 -24.758,3.93 -38.239,0.351 l 2.528,-20.121 c 9.711,3.442 18.89,4.391 25.07,2.102 4.391,-1.633 6.152,-4.453 4.863,-7.942 -1.164,-3.152 -5.753,-6.57 -10.925,-9.128 l -38.414,-18.77 -5.497,-14.844 60.391,-22.359 6.746,18.211"
         style="fill:#231f20;fill-opacity:1;fill-rule:nonzero;stroke:none"
         id="path78" />
      <path
         d="m 930.02,559.91 c 2.039,17.879 6.242,24.051 15.183,23.02 8.695,-0.981 11.406,-7.942 9.367,-25.809 -2.035,-17.883 -6.254,-24.16 -14.953,-23.16 -8.937,1.008 -11.633,8.078 -9.597,25.949 z m 7.55,-43.949 c 24.075,-2.75 39.379,10.84 42.504,38.25 3.114,27.301 -8.75,43.98 -32.82,46.719 -24.434,2.781 -39.504,-10.828 -42.613,-38.129 -3.125,-27.403 8.496,-44.063 32.929,-46.84"
         style="fill:#231f20;fill-opacity:1;fill-rule:nonzero;stroke:none"
         id="path80" />
      <path
         d="m 1041.72,581.441 c 4.63,0.571 7.51,-1.132 7.96,-4.82 0.42,-3.332 -2.09,-8.473 -5.49,-13.121 l -25.46,-34.359 1.95,-15.7 63.91,7.95 -2.4,19.281 -32.25,-4.024 12.67,16.692 c 8,10.539 13.63,20.672 12.46,30.07 -1.66,13.328 -15.27,20.699 -32.05,18.61 -12.61,-1.571 -23.79,-7.911 -34.11,-17.29 l 11.51,-16.699 c 7.04,7.528 14.75,12.598 21.3,13.41"
         style="fill:#231f20;fill-opacity:1;fill-rule:nonzero;stroke:none"
         id="path82" />
      <path
         d="m 1132.52,602.949 c 4.4,1.61 7.57,0.61 8.85,-2.879 1.17,-3.148 -0.11,-8.73 -2.38,-14.039 l -17.03,-39.23 5.46,-14.86 60.47,22.2 -6.7,18.238 -30.52,-11.199 8.57,19.121 c 5.41,12.078 8.6,23.23 5.33,32.121 -4.63,12.609 -19.55,16.707 -35.43,10.879 -11.94,-4.379 -21.39,-13.09 -29.32,-24.563 l 14.99,-13.668 c 5.15,8.93 11.52,15.61 17.71,17.879"
         style="fill:#231f20;fill-opacity:1;fill-rule:nonzero;stroke:none"
         id="path84" />
      <path
         d="m 1281.44,648.281 -9.32,11.899 -25.79,-20.211 9.33,-11.891 25.78,20.203"
         style="fill:#231f20;fill-opacity:1;fill-rule:nonzero;stroke:none"
         id="path86" />
      <path
         d="m 1450.44,919.719 -74.63,-39.25 -389.318,128.001 272.378,105.08 380.75,-94.34 z M 992.125,413.238 c -294.324,0 -537.793,220.883 -573.973,505.532 l 43.211,-20.372 c 44.508,-252.738 265.45,-445.437 530.762,-445.437 272.615,0 498.475,203.41 534.115,466.398 l 42.42,22.313 C 1543,646.039 1294.31,413.238 992.125,413.238 Z m 9.755,230.371 513.44,270.012 c -38.05,-254.66 -258.09,-450.66 -523.195,-450.66 -257.934,0 -473.109,185.59 -519.609,430.187 z m -331.103,454.231 10.215,3.15 283.192,-93.11 -56.809,-21.911 -300.902,-116.09 -110.465,52.07 -156.168,73.629 z m 55.371,147.72 220.43,-54.62 -265.535,-82.04 -159.645,52.48 -52.347,17.21 z m 743.502,-42.68 -211.07,-81.42 -283.764,70.31 206.184,63.7 7.66,2.37 z m -275.77,61.71 -5.47,1.08 -236.617,46.28 -0.504,0.09 -383.059,-99.77 -64.289,-16.75 c 79.864,191.07 268.477,325.77 488.184,325.77 214.205,0 398.885,-128.03 482.015,-311.51 z m -201.755,306.42 c 246.585,0 457.475,-155.05 540.735,-372.72 l -46.73,9.14 c -83.27,190.41 -273.25,323.86 -494.005,323.86 -226.523,0 -420.609,-140.54 -500.262,-338.91 l -47.023,-12.26 c 78.226,227.17 293.902,390.89 547.285,390.89 z m 574.985,-379.42 c -82.78,238.02 -309.11,409.42 -574.985,409.42 -273.457,0 -505.27,-181.25 -581.895,-429.9 l -296.335,-77.19 0.32,-0.16 5.676,-34.38 266.394,-125.579 c 29.469,-308.449 289.797,-550.563 605.84,-550.563 324.275,0 589.855,254.891 607.635,574.793 l 264.9,139.309 5.65,34.91 0.05,0.02 -303.25,59.32"
         style="fill:#231f20;fill-opacity:1;fill-rule:nonzero;stroke:none"
         id="path88" />
    </g>
  </g>
</svg>
